<svg width="25" height="25" viewBox="0 0 25 25" fill="none" xmlns="http://www.w3.org/2000/svg">
<path d="M21.2158 11.9092L11.9922 3.90381C11.9214 3.84277 11.8311 3.80859 11.7358 3.80859H9.5752C9.39453 3.80859 9.31152 4.0332 9.44824 4.15039L17.998 11.5723H3.71094C3.60352 11.5723 3.51562 11.6602 3.51562 11.7676V13.2324C3.51562 13.3398 3.60352 13.4277 3.71094 13.4277H17.9956L9.4458 20.8496C9.30908 20.9692 9.39209 21.1914 9.57275 21.1914H11.8066C11.853 21.1914 11.8994 21.1743 11.9336 21.1426L21.2158 13.0908C21.3003 13.0173 21.3681 12.9266 21.4145 12.8246C21.461 12.7227 21.485 12.612 21.485 12.5C21.485 12.388 21.461 12.2773 21.4145 12.1754C21.3681 12.0734 21.3003 11.9827 21.2158 11.9092Z" fill="white"/>
</svg>
