<svg width="23" height="23" viewBox="0 0 23 23" fill="none" xmlns="http://www.w3.org/2000/svg">
<path fill-rule="evenodd" clip-rule="evenodd" d="M11.5 0.041687C5.17183 0.041687 0.041626 5.1719 0.041626 11.5C0.041626 17.8281 5.17183 22.9584 11.5 22.9584C17.8281 22.9584 22.9583 17.8281 22.9583 11.5C22.9583 5.1719 17.8281 0.041687 11.5 0.041687ZM16.4666 9.56252C16.5581 9.45798 16.6277 9.33621 16.6714 9.20436C16.7151 9.07252 16.732 8.93326 16.7211 8.7948C16.7102 8.65633 16.6717 8.52144 16.6079 8.39807C16.544 8.2747 16.4562 8.16534 16.3495 8.07642C16.2428 7.9875 16.1194 7.92081 15.9865 7.88029C15.8537 7.83977 15.714 7.82623 15.5759 7.84047C15.4377 7.8547 15.3038 7.89642 15.182 7.96318C15.0602 8.02994 14.953 8.12038 14.8666 8.22919L10.3875 13.6031L8.06975 11.2844C7.87329 11.0946 7.61016 10.9897 7.33704 10.992C7.06392 10.9944 6.80266 11.104 6.60952 11.2971C6.41639 11.4902 6.30684 11.7515 6.30447 12.0246C6.30209 12.2977 6.40709 12.5609 6.59683 12.7573L9.72183 15.8823C9.82419 15.9846 9.94672 16.0644 10.0816 16.1167C10.2166 16.1691 10.3609 16.1927 10.5054 16.1861C10.65 16.1795 10.7916 16.1429 10.9212 16.0786C11.0508 16.0143 11.1656 15.9237 11.2583 15.8125L16.4666 9.56252Z" fill="#534444"/>
</svg>
