<svg width="25" height="25" viewBox="0 0 25 25" fill="none" xmlns="http://www.w3.org/2000/svg">
<path d="M9.11716 16.7812L7.36716 15.0312C7.13146 14.7984 6.83324 14.6391 6.50873 14.5725C6.18421 14.506 5.84735 14.535 5.53903 14.6562L3.40622 15.5078C3.09466 15.6343 2.8275 15.8501 2.63842 16.1282C2.44934 16.4062 2.3468 16.734 2.34372 17.0703V20.9765C2.34554 21.2053 2.39362 21.4313 2.48508 21.6409C2.57653 21.8506 2.70947 22.0396 2.87589 22.1965C3.04231 22.3534 3.23877 22.4751 3.45343 22.5541C3.66809 22.6331 3.89653 22.6678 4.12497 22.6562C19.0703 21.7265 22.0859 9.07028 22.6562 4.22653C22.6827 3.98867 22.6585 3.7479 22.5852 3.52006C22.512 3.29221 22.3913 3.08247 22.2312 2.90461C22.071 2.72675 21.875 2.58482 21.6561 2.48815C21.4372 2.39147 21.2002 2.34225 20.9609 2.34372H17.1875C16.8507 2.34472 16.522 2.44643 16.2436 2.63578C15.9651 2.82512 15.7497 3.09344 15.625 3.40622L14.7734 5.53903C14.6482 5.84612 14.6163 6.18329 14.6816 6.50842C14.7469 6.83355 14.9065 7.13223 15.1406 7.36716L16.8906 9.11716C16.8906 9.11716 15.8828 15.9375 9.11716 16.7812Z" fill="#FFF"/>
</svg>
