<svg width="25" height="25" viewBox="0 0 25 25" fill="none" xmlns="http://www.w3.org/2000/svg">
<path d="M12.5 11.4584C13.3629 11.4584 14.0625 10.7588 14.0625 9.89587C14.0625 9.03293 13.3629 8.33337 12.5 8.33337C11.6371 8.33337 10.9375 9.03293 10.9375 9.89587C10.9375 10.7588 11.6371 11.4584 12.5 11.4584Z" fill="#F5DCDC"/>
<path d="M12.5 2.08337C10.3042 2.08326 8.1971 2.94979 6.63667 4.49461C5.07624 6.03944 4.18858 8.13771 4.16663 10.3334C4.16663 16.0417 11.5104 22.3959 11.8229 22.6667C12.0116 22.8281 12.2517 22.9168 12.5 22.9168C12.7482 22.9168 12.9884 22.8281 13.177 22.6667C13.5416 22.3959 20.8333 16.0417 20.8333 10.3334C20.8113 8.13771 19.9237 6.03944 18.3632 4.49461C16.8028 2.94979 14.6957 2.08326 12.5 2.08337ZM12.5 13.5417C11.7789 13.5417 11.074 13.3279 10.4744 12.9273C9.87489 12.5267 9.40759 11.9573 9.13165 11.2911C8.8557 10.6249 8.7835 9.89183 8.92418 9.18461C9.06485 8.47738 9.41209 7.82776 9.92197 7.31788C10.4318 6.808 11.0815 6.46077 11.7887 6.32009C12.4959 6.17942 13.229 6.25162 13.8952 6.52756C14.5613 6.80351 15.1307 7.2708 15.5314 7.87036C15.932 8.46991 16.1458 9.1748 16.1458 9.89587C16.1458 10.8628 15.7617 11.7901 15.078 12.4739C14.3942 13.1576 13.4669 13.5417 12.5 13.5417V13.5417Z" fill="#F5DCDC"/>
</svg>
